<?xml version="1.0" encoding="UTF-8" standalone="no"?>
<svg width="30px" height="26px" viewBox="0 0 30 26" version="1.1" xmlns="http://www.w3.org/2000/svg" xmlns:xlink="http://www.w3.org/1999/xlink">
    <!-- Generator: Sketch 3.7.2 (28276) - http://www.bohemiancoding.com/sketch -->
    <title>am-logo</title>
    <desc>Created with Sketch.</desc>
    <defs></defs>
    <g id="Page-1" stroke="none" stroke-width="1" fill="none" fill-rule="evenodd">
        <g id="journalPost" transform="translate(-250.000000, -37.000000)" fill="#3F3F3F">
            <path d="M275.714286,37.5 C273.346858,37.5 271.428571,39.3433333 271.428571,41.6175 L271.428571,58.3833334 C271.428571,58.9508333 270.948571,59.4125001 270.357143,59.4125001 C269.765715,59.4125001 269.285714,58.9508333 269.285714,58.3833334 L269.285714,41.6175 C269.285714,39.3433333 267.366572,37.5 265,37.5 C262.633428,37.5 260.714286,39.3433333 260.714286,41.6175 L260.714286,58.3833334 C260.714286,58.9508333 260.234285,59.4125001 259.642857,59.4125001 C259.050572,59.4125001 258.571429,58.9508333 258.571429,58.3833334 L258.571429,41.6175 C258.571429,39.3433333 256.653143,37.5 254.285714,37.5 C251.919143,37.5 250,39.3433333 250,41.6175 L250,62.5 L253.214285,62.5 L253.214285,58.3833334 L255.357143,58.3833334 C255.357143,60.6575001 257.276286,62.5 259.642857,62.5 C262.009428,62.5 263.928571,60.6575001 263.928571,58.3833334 L263.928571,41.6175 C263.928571,41.0491667 264.408571,40.5883333 265,40.5883333 C265.592286,40.5883333 266.071429,41.0491667 266.071429,41.6175 L266.071429,58.3833334 C266.071429,60.6575001 267.989714,62.5 270.357143,62.5 C272.724571,62.5 274.642858,60.6575001 274.642858,58.3833334 L274.642858,41.6175 C274.642858,41.0491667 275.122857,40.5883333 275.714286,40.5883333 C276.305714,40.5883333 276.785715,41.0491667 276.785715,41.6175 L276.785715,62.5 L280,62.5 L280,41.6175 C280,39.3433333 278.081715,37.5 275.714286,37.5 L275.714286,37.5 L275.714286,37.5 Z M253.214285,55.2941667 L253.214285,41.6175 C253.214285,41.0491667 253.694286,40.5883333 254.285714,40.5883333 C254.877143,40.5883333 255.357143,41.0491667 255.357143,41.6175 L255.357143,55.2941667 L253.214285,55.2941667 L253.214285,55.2941667 L253.214285,55.2941667 Z" id="am-logo"></path>
        </g>
    </g>
</svg>